<svg xmlns="http://www.w3.org/2000/svg" xmlns:xlink="http://www.w3.org/1999/xlink" width="0" height="0" display="none" version="1.1"><defs><symbol id="arrow" viewBox="0 0 585 1024"><path d="M585.143 402.286q0 14.857-10.857 25.714l-256 256q-10.857 10.857-25.714 10.857t-25.714-10.857l-256-256q-10.857-10.857-10.857-25.714t10.857-25.714 25.714-10.857h512q14.857 0 25.714 10.857t10.857 25.714z"/></symbol><symbol id="check" viewBox="0 0 1024 1024"><path d="M954.857 323.429q0 22.857-16 38.857l-491.429 491.429q-16 16-38.857 16t-38.857-16l-284.571-284.571q-16-16-16-38.857t16-38.857l77.714-77.714q16-16 38.857-16t38.857 16l168 168.571 374.857-375.429q16-16 38.857-16t38.857 16l77.714 77.714q16 16 16 38.857z"/></symbol><symbol id="facebook" viewBox="0 0 585 1024"><path d="M548 6.857v150.857h-89.714q-49.143 0-66.286 20.571t-17.143 61.714v108h167.429l-22.286 169.143h-145.143v433.714h-174.857v-433.714h-145.714v-169.143h145.714v-124.571q0-106.286 59.429-164.857t158.286-58.571q84 0 130.286 6.857z"/></symbol><symbol id="wnyc" viewBox="0 0 2513 1024"><path d="M23.973 832.996h548.248v168.413h-548.248v-168.413z" class="path1"/><path d="M27.554 395.829l121.837 351.163h75.248l68.080-197.079 75.248 197.079h78.829l111.98-351.163h-85.997l-61.811 200.66-78.835-201.558h-71.667l-68.080 201.558-66.29-200.66h-98.543z" class="path2"/><path d="M661.799 141.413v859.99h544.661v-859.99h-544.661zM1104.337 741.621h-89.584l-145.125-186.33v186.33h-93.165v-342.211h85.997l145.125 180.959v-180.959h96.752v342.211z" class="path3"/><path d="M1303.206 227.416v773.993h544.661v-773.993h-544.661zM1620.332 610.379l-1.79 133.032h-93.165v-134.383l-127.208-211.855 102.13 0.446 75.248 123.628 75.248-124.074h99.429l-129.891 213.206z" class="path4"/><path d="M1941.039 26.75v978.24h551.829v-978.24h-551.829zM2049.615 571.744c0-160.448 199.542-245.616 324.997-111.415-25.286 24.337-42.009 39.798-68.087 60.919-70.995-83.824-160.624-24.193-160.624 47.393 0 60.661 64.751 142.034 160.624 58.311 32.14 21.108 38.811 27.152 69.136 48.373-133.736 152.086-326.047 47.211-326.047-103.581z" class="path5"/></symbol><symbol id="phone" viewBox="0 0 805 1024"><path d="M804.571 708.571q0 15.429-5.714 40.286t-12 39.143q-12 28.571-69.714 60.571-53.714 29.143-106.286 29.143-15.429 0-30-2t-32.857-7.143-27.143-8.286-31.714-11.714-28-10.286q-56-20-100-47.429-73.143-45.143-151.143-123.143t-123.143-151.143q-27.429-44-47.429-100-1.714-5.143-10.286-28t-11.714-31.714-8.286-27.143-7.143-32.857-2-30q0-52.571 29.143-106.286 32-57.714 60.571-69.714 14.286-6.286 39.143-12t40.286-5.714q8 0 12 1.714 10.286 3.429 30.286 43.429 6.286 10.857 17.143 30.857t20 36.286 17.714 30.571q1.714 2.286 10 14.286t12.286 20.286 4 16.286q0 11.429-16.286 28.571t-35.429 31.429-35.429 30.286-16.286 26.286q0 5.143 2.857 12.857t4.857 11.714 8 13.714 6.571 10.857q43.429 78.286 99.429 134.286t134.286 99.429q1.143 0.571 10.857 6.571t13.714 8 11.714 4.857 12.857 2.857q10.286 0 26.286-16.286t30.286-35.429 31.429-35.429 28.571-16.286q8 0 16.286 4t20.286 12.286 14.286 10q14.286 8.571 30.571 17.714t36.286 20 30.857 17.143q40 20 43.429 30.286 1.714 4 1.714 12z"/></symbol><symbol id="plus" viewBox="0 0 805 1024"><path d="M804.571 420.571v109.714q0 22.857-16 38.857t-38.857 16h-237.714v237.714q0 22.857-16 38.857t-38.857 16h-109.714q-22.857 0-38.857-16t-16-38.857v-237.714h-237.714q-22.857 0-38.857-16t-16-38.857v-109.714q0-22.857 16-38.857t38.857-16h237.714v-237.714q0-22.857 16-38.857t38.857-16h109.714q22.857 0 38.857 16t16 38.857v237.714h237.714q22.857 0 38.857 16t16 38.857z"/></symbol><symbol id="twitter" viewBox="0 0 951 1024"><path d="M925.714 233.143q-38.286 56-92.571 95.429 0.571 8 0.571 24 0 74.286-21.714 148.286t-66 142-105.429 120.286-147.429 83.429-184.571 31.143q-154.857 0-283.429-82.857 20 2.286 44.571 2.286 128.571 0 229.143-78.857-60-1.143-107.429-36.857t-65.143-91.143q18.857 2.857 34.857 2.857 24.571 0 48.571-6.286-64-13.143-106-63.714t-42-117.429v-2.286q38.857 21.714 83.429 23.429-37.714-25.143-60-65.714t-22.286-88q0-50.286 25.143-93.143 69.143 85.143 168.286 136.286t212.286 56.857q-4.571-21.714-4.571-42.286 0-76.571 54-130.571t130.571-54q80 0 134.857 58.286 62.286-12 117.143-44.571-21.143 65.714-81.143 101.714 53.143-5.714 106.286-28.571z"/></symbol><symbol id="spinner" viewBox="0 0 1024 1024"><path d="M300.571 796.571q0 30.286-21.429 51.714t-51.714 21.429q-29.714 0-51.429-21.714t-21.714-51.429q0-30.286 21.429-51.714t51.714-21.429 51.714 21.429 21.429 51.714zM585.143 914.286q0 30.286-21.429 51.714t-51.714 21.429-51.714-21.429-21.429-51.714 21.429-51.714 51.714-21.429 51.714 21.429 21.429 51.714zM182.857 512q0 30.286-21.429 51.714t-51.714 21.429-51.714-21.429-21.429-51.714 21.429-51.714 51.714-21.429 51.714 21.429 21.429 51.714zM869.714 796.571q0 29.714-21.714 51.429t-51.429 21.714q-30.286 0-51.714-21.429t-21.429-51.714 21.429-51.714 51.714-21.429 51.714 21.429 21.429 51.714zM318.857 227.429q0 37.714-26.857 64.571t-64.571 26.857-64.571-26.857-26.857-64.571 26.857-64.571 64.571-26.857 64.571 26.857 26.857 64.571zM987.429 512q0 30.286-21.429 51.714t-51.714 21.429-51.714-21.429-21.429-51.714 21.429-51.714 51.714-21.429 51.714 21.429 21.429 51.714zM621.714 109.714q0 45.714-32 77.714t-77.714 32-77.714-32-32-77.714 32-77.714 77.714-32 77.714 32 32 77.714zM924.571 227.429q0 53.143-37.714 90.571t-90.286 37.429q-53.143 0-90.571-37.429t-37.429-90.571q0-52.571 37.429-90.286t90.571-37.714q52.571 0 90.286 37.714t37.714 90.286z"/></symbol></defs></svg>