<svg display="none" width="0" height="0" version="1.1" xmlns="http://www.w3.org/2000/svg" xmlns:xlink="http://www.w3.org/1999/xlink">
    <symbol id="carat" viewBox="0 0 22 40">
      <path d="M1.39579327,37.2630865 L3.33715865,39.1364423 C3.54737019,39.4146635 3.89360096,39.553774 4.17182212,39.553774 C4.51805288,39.553774 4.79627404,39.4146635 5.07140385,39.1364423 L23.1125,21.0953462 C23.3907212,20.888226 23.5298317,20.5419952 23.5298317,20.263774 C23.5298317,19.9175433 23.3907212,19.5713125 23.1125,19.361101 L5.07140385,1.32000481 C4.79627404,1.044875 4.51805288,0.905764423 4.17182212,0.905764423 C3.89360096,0.905764423 3.54737019,1.044875 3.33715865,1.32000481 L1.39579327,3.26446154 C1.11757212,3.47158173 0.978461538,3.8178125 0.978461538,4.09603365 C0.978461538,4.44226442 1.11757212,4.79158654 1.39579327,4.99870673 L16.5897596,20.263774 L1.39579327,35.4608317 C1.11757212,35.7359615 0.978461538,36.0141827 0.978461538,36.3604135 C0.978461538,36.7097356 1.11757212,36.9848654 1.39579327,37.2630865"></path>
    </symbol>
</svg>
